Title                            : Collateral
Year                             : 2004
Genre                            : Crime | Drama | Thriller
iMDB URL                         : http://www.imdb.com/title/tt0369339/
Awards                           : Nominated for 2 Oscars. Another 11 wins & 36 nominations

Complete name                    : Collateral.2004.HDRIP.H264-ZEKTORM.mp4
Format                           : MPEG-4
Format profile                   : Base Media
Codec ID                         : isom
File size                        : 701 MiB
Duration                         : 1h 54mn
Overall bit rate                 : 857 Kbps
Subtitles                        : English, Spanish (Format: srt)

Video
ID                               : 1
Format                           : AVC
Format/Info                      : Advanced Video Codec
Format profile                   : High@L3.0
Format settings, CABAC           : Yes
Codec ID                         : avc1
Codec ID/Info                    : Advanced Video Coding
Duration                         : 1h 54mn
Bit rate mode                    : Variable
Bit rate                         : 773 Kbps
Width                            : 816 pixels
Height                           : 336 pixels
Display aspect ratio             : 2.429
Frame rate mode                  : Constant
Frame rate                       : 23.976 fps
Resolution                       : 24 bits
Colorimetry                      : 4:2:0
Scan type                        : Progressive
Bits/(Pixel*Frame)               : 0.118
Stream size                      : 632 MiB (90%)
Title                            : Video
Writing library                  : x264

Audio
ID                               : 2
Format                           : AAC
Format/Info                      : Advanced Audio Codec
Format version                   : Version 4
Format profile                   : LC
Format settings, SBR             : Yes
Format settings, PS              : No
Codec ID                         : 40
Duration                         : 1h 54mn
Bit rate mode                    : Variable
Bit rate                         : 81.1 Kbps
Maximum bit rate                 : 110 Kbps
Channel(s)                       : 2 channels
Channel positions                : L R
Sampling rate                    : 48.0 KHz
Resolution                       : 16 bits
Stream size                      : 66.3 MiB (9%)
Title                            : English
Language                         : English
